<svg width="130" height="27" viewBox="0 0 130 27" fill="none" xmlns="http://www.w3.org/2000/svg">
<path d="M49.2999 21.4218L46.788 12.7211L46.4259 11.1189L46.0412 12.7211L43.552 21.4218H39.4786L34.93 6.2901H38.7997L41.2664 16.2147L41.6737 18.0172L42.081 16.2147L44.9324 6.2901H48.1005L50.9293 16.2147L51.3366 18.0172L51.7439 16.2147L54.2106 6.2901H57.8766L53.328 21.4218H49.2999Z" fill="#10140B"/>
<path d="M70.1103 17.4831C69.4767 20.2424 67.2137 21.7778 64.2266 21.7778C60.4474 21.7778 58.1165 19.3746 58.1165 15.4359C58.1165 11.3637 60.47 9.07166 64.0908 9.07166C67.7342 9.07166 70.0198 11.4527 70.0198 15.3691V16.1257H61.6468C61.8278 18.0394 62.733 19.063 64.2266 19.063C65.358 19.063 66.1275 18.5735 66.4895 17.4831H70.1103ZM64.0908 11.7865C62.8009 11.7865 61.9862 12.6098 61.7147 14.1675H66.4443C66.1727 12.6098 65.358 11.7865 64.0908 11.7865Z" fill="#10140B"/>
<path d="M75.3811 21.4218H71.9187V5.4H75.3811V10.6738C76.1279 9.62798 77.1688 9.07166 78.4361 9.07166C81.5816 9.07166 83.5278 11.4972 83.5278 15.4136C83.5278 19.4858 81.5364 21.7778 78.4361 21.7778C77.1462 21.7778 76.1052 21.2438 75.3811 20.2424V21.4218ZM77.6893 11.831C76.1731 11.831 75.3811 13.0994 75.3811 15.4136C75.3811 17.7279 76.1958 19.0185 77.6893 19.0185C79.1829 19.0185 79.9976 17.7501 79.9976 15.4136C79.9976 13.0994 79.1829 11.831 77.6893 11.831Z" fill="#10140B"/>
<path d="M85.3552 21.4218V5.4H88.8175V21.4218H85.3552Z" fill="#10140B"/>
<path d="M96.599 21.7778C92.9103 21.7778 90.6247 19.3746 90.6247 15.4359C90.6247 11.3637 92.9782 9.07166 96.599 9.07166C100.288 9.07166 102.596 11.5194 102.596 15.4359C102.596 19.4858 100.22 21.7778 96.599 21.7778ZM96.599 19.0185C98.2057 19.0185 99.043 17.7724 99.043 15.4359C99.043 13.1216 98.1831 11.831 96.599 11.831C95.0149 11.831 94.1776 13.0994 94.1776 15.4359C94.1776 17.7501 95.0375 19.0185 96.599 19.0185Z" fill="#10140B"/>
<path d="M104.427 21.4218V9.44996H107.889V11.1189C108.659 9.69473 109.835 9.07166 111.08 9.07166C111.578 9.07166 112.031 9.20518 112.279 9.44996V12.3205C111.872 12.2315 111.442 12.187 110.899 12.187C108.817 12.187 107.889 13.3441 107.889 15.2356V21.4218H104.427Z" fill="#10140B"/>
<path d="M113.664 8.24832V5.4H117.127V8.24832H113.664ZM113.664 21.4218V9.44996H117.127V21.4218H113.664Z" fill="#10140B"/>
<path d="M122.464 12.7656C122.464 15.1243 130 13.0549 130 17.7946C130 20.1534 127.782 21.7778 124.614 21.7778C121.536 21.7778 119.319 20.4427 118.866 17.4831H122.328C122.487 18.5957 123.415 19.1966 124.705 19.1966C125.927 19.1966 126.538 18.7292 126.538 17.9949C126.538 15.6807 119.16 17.7501 119.16 12.9436C119.16 10.9409 120.812 9.07166 124.071 9.07166C126.99 9.07166 129.208 10.3846 129.547 13.4109H126.108C125.904 12.187 125.18 11.6752 123.958 11.6752C123.053 11.6752 122.464 12.1203 122.464 12.7656Z" fill="#10140B"/>
<path d="M4.15248 20.4105C5.26537 21.1738 7.06971 21.1738 8.18262 20.4105C9.29546 19.6472 9.29546 18.4096 8.18262 17.6463C7.06971 16.883 5.26537 16.883 4.15248 17.6463C3.03959 18.4096 3.03959 19.6472 4.15248 20.4105Z" fill="#A0F751"/>
<path d="M15.7031 10.0448C17.3724 11.1897 20.0789 11.1897 21.7482 10.0448C23.4175 8.89979 23.4175 7.04345 21.7482 5.89849C20.0789 4.75352 17.3724 4.75352 15.7031 5.89849C14.0338 7.04345 14.0338 8.89979 15.7031 10.0448Z" fill="#A0F751"/>
<path d="M9.57383 15.2277C10.9649 16.1818 13.2204 16.1818 14.6115 15.2277C16.0026 14.2735 16.0026 12.7265 14.6115 11.7724C13.2204 10.8183 10.9649 10.8183 9.57383 11.7724C8.18273 12.7265 8.18273 14.2735 9.57383 15.2277Z" fill="#A0F751"/>
<path d="M0.625998 14.5366C1.46066 15.1091 2.81392 15.1091 3.64858 14.5366C4.48324 13.9641 4.48324 13.036 3.64858 12.4634C2.81392 11.891 1.46066 11.891 0.625998 12.4634C-0.208666 13.036 -0.208665 13.9641 0.625998 14.5366Z" fill="#A0F751"/>
<path d="M9.57383 4.17085C10.9649 5.12499 13.2204 5.12499 14.6115 4.17085C16.0026 3.21671 16.0026 1.66974 14.6115 0.715606C13.2204 -0.238535 10.9649 -0.238536 9.57383 0.715606C8.18273 1.66974 8.18273 3.21671 9.57383 4.17085Z" fill="#A0F751"/>
<path d="M4.15248 9.35373C5.26536 10.1171 7.06971 10.1171 8.18262 9.35373C9.29546 8.59041 9.29546 7.35282 8.18262 6.58953C7.06971 5.82622 5.26536 5.82622 4.15248 6.58953C3.03959 7.35282 3.0396 8.59041 4.15248 9.35373Z" fill="#A0F751"/>
<path d="M9.57383 26.2844C10.9649 27.2385 13.2204 27.2385 14.6115 26.2844C16.0026 25.3303 16.0026 23.7833 14.6115 22.8291C13.2204 21.875 10.9649 21.875 9.57383 22.8291C8.18273 23.7833 8.18273 25.3303 9.57383 26.2844Z" fill="#A0F751"/>
<path d="M23.0537 15.5732C24.7231 16.7181 27.4296 16.7181 29.0989 15.5732C30.7683 14.4282 30.7683 12.5718 29.0989 11.4269C27.4296 10.2819 24.7231 10.2819 23.0537 11.4269C21.3844 12.5718 21.3844 14.4282 23.0537 15.5732Z" fill="#A0F751"/>
<path d="M15.7031 21.1015C17.3724 22.2465 20.0789 22.2465 21.7482 21.1015C23.4175 19.9566 23.4175 18.1002 21.7482 16.9552C20.0789 15.8103 17.3724 15.8103 15.7031 16.9552C14.0338 18.1002 14.0338 19.9566 15.7031 21.1015Z" fill="#A0F751"/>
</svg>
